<?xml version="1.0" standalone="no"?>
<!DOCTYPE svg PUBLIC "-//W3C//DTD SVG 1.1//EN" "http://www.w3.org/Graphics/SVG/1.1/DTD/svg11.dtd">
<svg width="800" height="600" version="1.1" xmlns="http://www.w3.org/2000/svg">
<rect width="800" height="600" x="0" y="0" style="fill:rgb(238,238,238);stroke:none"/>
<rect width="800" height="600" x="0" y="0" style="fill:rgb(255,255,255);stroke:none"/>
<text x="2" y="566" fill="rgb(0,0,0)" font-family="Arial" font-size="12">0</text>
<text x="2" y="514" fill="rgb(0,0,0)" font-family="Arial" font-size="12">100000</text>
<text x="2" y="462" fill="rgb(0,0,0)" font-family="Arial" font-size="12">200000</text>
<text x="2" y="410" fill="rgb(0,0,0)" font-family="Arial" font-size="12">300000</text>
<text x="2" y="358" fill="rgb(0,0,0)" font-family="Arial" font-size="12">400000</text>
<text x="2" y="306" fill="rgb(0,0,0)" font-family="Arial" font-size="12">500000</text>
<text x="2" y="254" fill="rgb(0,0,0)" font-family="Arial" font-size="12">600000</text>
<text x="2" y="202" fill="rgb(0,0,0)" font-family="Arial" font-size="12">700000</text>
<text x="2" y="150" fill="rgb(0,0,0)" font-family="Arial" font-size="12">800000</text>
<text x="2" y="98" fill="rgb(0,0,0)" font-family="Arial" font-size="12">900000</text>
<text x="282" y="30" fill="rgb(0,0,0)" font-family="Arial" font-size="12">Quality score distribution over all sequences</text>
<line x1="53" y1="560" x2="790" y2="560" stroke="rgb(0,0,0)" stroke-width="1"/>
<line x1="53" y1="560" x2="53" y2="40" stroke="rgb(0,0,0)" stroke-width="1"/>
<text x="281" y="595" fill="rgb(0,0,0)" font-family="Arial" font-size="12">Mean Sequence Quality (Phred Score)</text>
<text x="58" y="575" fill="rgb(0,0,0)" font-family="Arial" font-size="12">11</text>
<rect width="27" height="520" x="80" y="40" style="fill:rgb(230,230,230);stroke:none"/>
<text x="85" y="575" fill="rgb(0,0,0)" font-family="Arial" font-size="12">12</text>
<text x="112" y="575" fill="rgb(0,0,0)" font-family="Arial" font-size="12">13</text>
<rect width="27" height="520" x="134" y="40" style="fill:rgb(230,230,230);stroke:none"/>
<text x="139" y="575" fill="rgb(0,0,0)" font-family="Arial" font-size="12">14</text>
<text x="166" y="575" fill="rgb(0,0,0)" font-family="Arial" font-size="12">15</text>
<rect width="27" height="520" x="188" y="40" style="fill:rgb(230,230,230);stroke:none"/>
<text x="193" y="575" fill="rgb(0,0,0)" font-family="Arial" font-size="12">16</text>
<text x="220" y="575" fill="rgb(0,0,0)" font-family="Arial" font-size="12">17</text>
<rect width="27" height="520" x="242" y="40" style="fill:rgb(230,230,230);stroke:none"/>
<text x="247" y="575" fill="rgb(0,0,0)" font-family="Arial" font-size="12">18</text>
<text x="274" y="575" fill="rgb(0,0,0)" font-family="Arial" font-size="12">19</text>
<rect width="27" height="520" x="296" y="40" style="fill:rgb(230,230,230);stroke:none"/>
<text x="301" y="575" fill="rgb(0,0,0)" font-family="Arial" font-size="12">20</text>
<text x="328" y="575" fill="rgb(0,0,0)" font-family="Arial" font-size="12">21</text>
<rect width="27" height="520" x="350" y="40" style="fill:rgb(230,230,230);stroke:none"/>
<text x="355" y="575" fill="rgb(0,0,0)" font-family="Arial" font-size="12">22</text>
<text x="382" y="575" fill="rgb(0,0,0)" font-family="Arial" font-size="12">23</text>
<rect width="27" height="520" x="404" y="40" style="fill:rgb(230,230,230);stroke:none"/>
<text x="409" y="575" fill="rgb(0,0,0)" font-family="Arial" font-size="12">24</text>
<text x="436" y="575" fill="rgb(0,0,0)" font-family="Arial" font-size="12">25</text>
<rect width="27" height="520" x="458" y="40" style="fill:rgb(230,230,230);stroke:none"/>
<text x="463" y="575" fill="rgb(0,0,0)" font-family="Arial" font-size="12">26</text>
<text x="490" y="575" fill="rgb(0,0,0)" font-family="Arial" font-size="12">27</text>
<rect width="27" height="520" x="512" y="40" style="fill:rgb(230,230,230);stroke:none"/>
<text x="517" y="575" fill="rgb(0,0,0)" font-family="Arial" font-size="12">28</text>
<text x="544" y="575" fill="rgb(0,0,0)" font-family="Arial" font-size="12">29</text>
<rect width="27" height="520" x="566" y="40" style="fill:rgb(230,230,230);stroke:none"/>
<text x="571" y="575" fill="rgb(0,0,0)" font-family="Arial" font-size="12">30</text>
<text x="598" y="575" fill="rgb(0,0,0)" font-family="Arial" font-size="12">31</text>
<rect width="27" height="520" x="620" y="40" style="fill:rgb(230,230,230);stroke:none"/>
<text x="625" y="575" fill="rgb(0,0,0)" font-family="Arial" font-size="12">32</text>
<text x="652" y="575" fill="rgb(0,0,0)" font-family="Arial" font-size="12">33</text>
<rect width="27" height="520" x="674" y="40" style="fill:rgb(230,230,230);stroke:none"/>
<text x="679" y="575" fill="rgb(0,0,0)" font-family="Arial" font-size="12">34</text>
<text x="706" y="575" fill="rgb(0,0,0)" font-family="Arial" font-size="12">35</text>
<rect width="27" height="520" x="728" y="40" style="fill:rgb(230,230,230);stroke:none"/>
<text x="733" y="575" fill="rgb(0,0,0)" font-family="Arial" font-size="12">36</text>
<text x="760" y="575" fill="rgb(0,0,0)" font-family="Arial" font-size="12">37</text>
<line x1="53" y1="560" x2="790" y2="560" stroke="rgb(180,180,180)" stroke-width="1"/>
<line x1="53" y1="508" x2="790" y2="508" stroke="rgb(180,180,180)" stroke-width="1"/>
<line x1="53" y1="456" x2="790" y2="456" stroke="rgb(180,180,180)" stroke-width="1"/>
<line x1="53" y1="404" x2="790" y2="404" stroke="rgb(180,180,180)" stroke-width="1"/>
<line x1="53" y1="352" x2="790" y2="352" stroke="rgb(180,180,180)" stroke-width="1"/>
<line x1="53" y1="300" x2="790" y2="300" stroke="rgb(180,180,180)" stroke-width="1"/>
<line x1="53" y1="248" x2="790" y2="248" stroke="rgb(180,180,180)" stroke-width="1"/>
<line x1="53" y1="196" x2="790" y2="196" stroke="rgb(180,180,180)" stroke-width="1"/>
<line x1="53" y1="144" x2="790" y2="144" stroke="rgb(180,180,180)" stroke-width="1"/>
<line x1="53" y1="92" x2="790" y2="92" stroke="rgb(180,180,180)" stroke-width="1"/>
<line x1="66" y1="560" x2="93" y2="560" stroke="rgb(136,34,85)" stroke-width="1"/>
<line x1="93" y1="560" x2="120" y2="560" stroke="rgb(136,34,85)" stroke-width="1"/>
<line x1="120" y1="560" x2="147" y2="560" stroke="rgb(136,34,85)" stroke-width="1"/>
<line x1="147" y1="560" x2="174" y2="560" stroke="rgb(136,34,85)" stroke-width="1"/>
<line x1="174" y1="560" x2="201" y2="560" stroke="rgb(136,34,85)" stroke-width="1"/>
<line x1="201" y1="560" x2="228" y2="560" stroke="rgb(136,34,85)" stroke-width="1"/>
<line x1="228" y1="560" x2="255" y2="560" stroke="rgb(136,34,85)" stroke-width="1"/>
<line x1="255" y1="560" x2="282" y2="560" stroke="rgb(136,34,85)" stroke-width="1"/>
<line x1="282" y1="560" x2="309" y2="560" stroke="rgb(136,34,85)" stroke-width="1"/>
<line x1="309" y1="560" x2="336" y2="559" stroke="rgb(136,34,85)" stroke-width="1"/>
<line x1="336" y1="559" x2="363" y2="558" stroke="rgb(136,34,85)" stroke-width="1"/>
<line x1="363" y1="558" x2="390" y2="557" stroke="rgb(136,34,85)" stroke-width="1"/>
<line x1="390" y1="557" x2="417" y2="556" stroke="rgb(136,34,85)" stroke-width="1"/>
<line x1="417" y1="556" x2="444" y2="555" stroke="rgb(136,34,85)" stroke-width="1"/>
<line x1="444" y1="555" x2="471" y2="554" stroke="rgb(136,34,85)" stroke-width="1"/>
<line x1="471" y1="554" x2="498" y2="553" stroke="rgb(136,34,85)" stroke-width="1"/>
<line x1="498" y1="553" x2="525" y2="551" stroke="rgb(136,34,85)" stroke-width="1"/>
<line x1="525" y1="551" x2="552" y2="547" stroke="rgb(136,34,85)" stroke-width="1"/>
<line x1="552" y1="547" x2="579" y2="543" stroke="rgb(136,34,85)" stroke-width="1"/>
<line x1="579" y1="543" x2="606" y2="536" stroke="rgb(136,34,85)" stroke-width="1"/>
<line x1="606" y1="536" x2="633" y2="526" stroke="rgb(136,34,85)" stroke-width="1"/>
<line x1="633" y1="526" x2="660" y2="506" stroke="rgb(136,34,85)" stroke-width="1"/>
<line x1="660" y1="506" x2="687" y2="461" stroke="rgb(136,34,85)" stroke-width="1"/>
<line x1="687" y1="461" x2="714" y2="317" stroke="rgb(136,34,85)" stroke-width="1"/>
<line x1="714" y1="317" x2="741" y2="40" stroke="rgb(136,34,85)" stroke-width="1"/>
<line x1="741" y1="40" x2="768" y2="545" stroke="rgb(136,34,85)" stroke-width="1"/>
<rect width="183" height="23" x="607" y="40" style="fill:rgb(255,255,255);stroke:none"/>
<rect width="183" height="23" x="607" y="40" rx="0" ry="0" style="fill:none;stroke-width:1;stroke:rgb(192,192,192)"/>
<text x="610" y="55" fill="rgb(136,34,85)" font-family="Arial" font-size="12" font-weight="bold">Average Quality per read</text>
</svg>
